<svg width="640" height="420" viewBox="0 0 640 420" fill="none" xmlns="http://www.w3.org/2000/svg">
  <rect width="640" height="420" rx="32" fill="#F3F7FB"/>
  <circle cx="108" cy="324" r="52" fill="#FFE8DA"/>
  <circle cx="536" cy="83" r="56" fill="#FFF2E9"/>
  <path d="M171 261C171 261 208 257 235 227C253 207 262 179 262 179L314 192C314 192 310 225 337 242C365 259 433 261 433 261C449 261 462 274 462 290V295H171V261Z" fill="#FF6B00"/>
  <path d="M183 295H462" stroke="#111A2D" stroke-width="6" stroke-linecap="round"/>
  <path d="M200 263H432" stroke="#FFB182" stroke-width="5" stroke-linecap="round"/>
  <circle cx="261" cy="232" r="7" fill="white"/>
  <circle cx="286" cy="237" r="7" fill="white"/>
  <circle cx="311" cy="242" r="7" fill="white"/>
  <path d="M278 175C278 175 313 171 342 145C361 128 372 103 372 103L422 117C422 117 420 146 446 163C472 180 523 183 523 183C540 183 553 196 553 212V217H278V175Z" fill="#FF944F"/>
  <path d="M288 217H553" stroke="#111A2D" stroke-width="6" stroke-linecap="round"/>
  <circle cx="408" cy="153" r="7" fill="white"/>
  <circle cx="432" cy="158" r="7" fill="white"/>
  <circle cx="456" cy="163" r="7" fill="white"/>
</svg>
